<svg xmlns="http://www.w3.org/2000/svg" xmlns:xlink="http://www.w3.org/1999/xlink" width="1024" zoomAndPan="magnify" viewBox="0 0 768 767.999994" height="1024" preserveAspectRatio="xMidYMid meet" version="1.0"><defs><g/><clipPath id="150d3eab52"><path d="M 135.964844 141.1875 L 626.8125 141.1875 L 626.8125 632.035156 L 135.964844 632.035156 Z M 135.964844 141.1875 " clip-rule="nonzero"/></clipPath><clipPath id="74f7e11bbc"><path d="M 381.386719 141.1875 C 245.84375 141.1875 135.964844 251.070312 135.964844 386.613281 C 135.964844 522.15625 245.84375 632.035156 381.386719 632.035156 C 516.929688 632.035156 626.8125 522.15625 626.8125 386.613281 C 626.8125 251.070312 516.929688 141.1875 381.386719 141.1875 Z M 381.386719 141.1875 " clip-rule="nonzero"/></clipPath><clipPath id="994d856213"><path d="M 0.964844 0.1875 L 491.8125 0.1875 L 491.8125 491.035156 L 0.964844 491.035156 Z M 0.964844 0.1875 " clip-rule="nonzero"/></clipPath><clipPath id="42b8fc2cbe"><path d="M 246.386719 0.1875 C 110.84375 0.1875 0.964844 110.070312 0.964844 245.613281 C 0.964844 381.15625 110.84375 491.035156 246.386719 491.035156 C 381.929688 491.035156 491.8125 381.15625 491.8125 245.613281 C 491.8125 110.070312 381.929688 0.1875 246.386719 0.1875 Z M 246.386719 0.1875 " clip-rule="nonzero"/></clipPath><clipPath id="ed5cf55d4e"><rect x="0" width="492" y="0" height="492"/></clipPath><clipPath id="d75d0323d8"><rect x="0" width="544" y="0" height="768"/></clipPath></defs><rect x="-76.8" width="921.6" fill="#ffffff" y="-76.799999" height="921.599993" fill-opacity="1"/><rect x="-76.8" width="921.6" fill="#ffffff" y="-76.799999" height="921.599993" fill-opacity="1"/><path fill="#000000" d="M 384 0 C 171.929688 0 0 171.929688 0 384 C 0 596.070312 171.929688 768 384 768 C 596.070312 768 768 596.070312 768 384 C 768 171.929688 596.070312 0 384 0 Z M 535.449219 518.09375 C 522.238281 538.214844 503.550781 553.675781 479.847656 564.121094 C 455.832031 574.667969 425.011719 579.992188 388.25 579.992188 C 323.839844 579.992188 278.785156 567.65625 254.464844 543.285156 C 230.144531 518.910156 217.242188 490.136719 213.195312 454.605469 L 317.542969 448.050781 C 320.359375 465.203125 325.53125 478.71875 333.003906 488.242188 C 346.367188 505.242188 365.566406 513.84375 390.09375 513.84375 C 408.421875 513.84375 422.910156 509.335938 433.101562 500.53125 C 443.496094 491.519531 448.820312 480.769531 448.820312 468.683594 C 448.820312 456.601562 443.800781 446.769531 433.867188 437.8125 C 424.242188 429.160156 403.355469 421.375 369.972656 414.054688 C 318.363281 402.433594 281.191406 386.96875 259.480469 367.972656 C 237.824219 349.183594 227.277344 325.886719 227.277344 296.753906 C 227.277344 277.863281 232.859375 259.738281 243.8125 242.894531 C 254.769531 226.046875 271.617188 212.582031 293.835938 202.855469 C 316.3125 193.023438 347.800781 188.007812 387.429688 188.007812 C 435.8125 188.007812 473.035156 197.019531 498.125 214.785156 C 521.675781 231.476562 536.371094 258.152344 541.796875 294.042969 L 438.527344 300.082031 C 434.996094 283.648438 428.339844 271.308594 418.664062 263.320312 C 408.117188 254.617188 393.574219 250.214844 375.449219 250.214844 C 360.292969 250.214844 348.570312 253.59375 340.582031 260.300781 C 332.339844 267.210938 328.140625 275.8125 328.140625 285.851562 C 328.140625 293.582031 331.671875 300.542969 338.6875 306.484375 C 344.984375 312.167969 358.964844 317.285156 381.285156 321.894531 C 433.101562 333.054688 470.628906 344.472656 492.902344 355.789062 C 514.664062 366.898438 530.636719 380.722656 540.46875 397.003906 C 550.296875 413.285156 555.265625 431.769531 555.265625 451.941406 C 555.265625 475.75 548.609375 498.023438 535.398438 518.09375 Z M 535.449219 518.09375 " fill-opacity="1" fill-rule="nonzero"/><g clip-path="url(#150d3eab52)"><g clip-path="url(#74f7e11bbc)"><g transform="matrix(1, 0, 0, 1, 135, 141)"><g clip-path="url(#ed5cf55d4e)"><g clip-path="url(#994d856213)"><g clip-path="url(#42b8fc2cbe)"><path fill="#000000" d="M 0.964844 0.1875 L 491.8125 0.1875 L 491.8125 491.035156 L 0.964844 491.035156 Z M 0.964844 0.1875 " fill-opacity="1" fill-rule="nonzero"/></g></g></g></g></g></g><g transform="matrix(1, 0, 0, 1, 111, -0.000000000000057351)"><g clip-path="url(#d75d0323d8)"><g fill="#ffffff" fill-opacity="1"><g transform="translate(2.117571, 741.192612)"><g><path d="M 460.8125 -565.546875 C 455.9375 -557.753906 450.820312 -551.90625 445.46875 -548 C 440.113281 -544.101562 433.210938 -542.15625 424.765625 -542.15625 C 417.296875 -542.15625 409.257812 -544.507812 400.65625 -549.21875 C 392.050781 -553.925781 382.304688 -559.203125 371.421875 -565.046875 C 360.546875 -570.898438 348.125 -576.179688 334.15625 -580.890625 C 320.195312 -585.597656 304.285156 -587.953125 286.421875 -587.953125 C 255.578125 -587.953125 232.601562 -581.375 217.5 -568.21875 C 202.394531 -555.070312 194.84375 -537.296875 194.84375 -514.890625 C 194.84375 -500.597656 199.390625 -488.742188 208.484375 -479.328125 C 217.578125 -469.910156 229.507812 -461.789062 244.28125 -454.96875 C 259.0625 -448.144531 275.953125 -441.890625 294.953125 -436.203125 C 313.953125 -430.523438 333.351562 -424.195312 353.15625 -417.21875 C 372.96875 -410.238281 392.367188 -402.035156 411.359375 -392.609375 C 430.359375 -383.191406 447.242188 -371.175781 462.015625 -356.5625 C 476.796875 -341.957031 488.734375 -324.179688 497.828125 -303.234375 C 506.921875 -282.285156 511.46875 -257.035156 511.46875 -227.484375 C 511.46875 -194.679688 505.785156 -163.988281 494.421875 -135.40625 C 483.054688 -106.832031 466.578125 -81.910156 444.984375 -60.640625 C 423.390625 -39.367188 396.757812 -22.644531 365.09375 -10.46875 C 333.425781 1.707031 297.460938 7.796875 257.203125 7.796875 C 235.117188 7.796875 212.628906 5.519531 189.734375 0.96875 C 166.835938 -3.570312 144.671875 -9.984375 123.234375 -18.265625 C 101.804688 -26.546875 81.671875 -36.367188 62.828125 -47.734375 C 43.992188 -59.097656 27.597656 -71.765625 13.640625 -85.734375 L 62.34375 -162.703125 C 66.25 -168.222656 71.363281 -172.847656 77.6875 -176.578125 C 84.019531 -180.316406 90.921875 -182.1875 98.390625 -182.1875 C 108.140625 -182.1875 117.960938 -179.097656 127.859375 -172.921875 C 137.765625 -166.753906 148.96875 -159.9375 161.46875 -152.46875 C 173.976562 -145 188.347656 -138.175781 204.578125 -132 C 220.816406 -125.832031 239.976562 -122.75 262.0625 -122.75 C 291.945312 -122.75 315.164062 -129.320312 331.71875 -142.46875 C 348.28125 -155.625 356.5625 -176.492188 356.5625 -205.078125 C 356.5625 -221.640625 352.015625 -235.113281 342.921875 -245.5 C 333.835938 -255.894531 321.90625 -264.5 307.125 -271.3125 C 292.351562 -278.132812 275.546875 -284.144531 256.703125 -289.34375 C 237.867188 -294.539062 218.546875 -300.304688 198.734375 -306.640625 C 178.929688 -312.972656 159.613281 -320.765625 140.78125 -330.015625 C 121.945312 -339.273438 105.140625 -351.453125 90.359375 -366.546875 C 75.585938 -381.648438 63.65625 -400.488281 54.5625 -423.0625 C 45.46875 -445.632812 40.921875 -473.484375 40.921875 -506.609375 C 40.921875 -533.234375 46.273438 -559.207031 56.984375 -584.53125 C 67.703125 -609.863281 83.453125 -632.4375 104.234375 -652.25 C 125.023438 -672.0625 150.519531 -687.894531 180.71875 -699.75 C 210.914062 -711.601562 245.5 -717.53125 284.46875 -717.53125 C 306.226562 -717.53125 327.421875 -715.820312 348.046875 -712.40625 C 368.671875 -709 388.238281 -703.96875 406.75 -697.3125 C 425.257812 -690.65625 442.550781 -682.695312 458.625 -673.4375 C 474.695312 -664.1875 489.066406 -653.710938 501.734375 -642.015625 Z M 460.8125 -565.546875 "/></g></g></g></g></g></svg>